<?xml version="1.0" standalone="no"?>
<!DOCTYPE svg PUBLIC "-//W3C//DTD SVG 1.1//EN"
  "http://www.w3.org/Graphics/SVG/1.1/DTD/svg11.dtd">
<svg version="1.1" xmlns="http://www.w3.org/2000/svg" width="1920" height="1080" viewBox="-1040.888888888889 -32 1889.7777777777778 1063"><defs><style type="text/css">@import url(&#x27;https://fonts.googleapis.com/css?family=Open+Sans:400,700&#x27;);</style></defs><g><filter id="dropshadow" height="130%"><feGaussianBlur in="SourceAlpha" stdDeviation="3"></feGaussianBlur><feOffset dx="3" dy="6" result="offsetblur"></feOffset><feComponentTransfer><feFuncA type="linear" slope="0.4"></feFuncA></feComponentTransfer><feMerge><feMergeNode></feMergeNode><feMergeNode in="SourceGraphic"></feMergeNode></feMerge></filter><g><g style="pointer-events:none"><line x1="32" y1="19" x2="-928" y2="574" stroke="#eee" stroke-width="1"></line><line x1="96" y1="56" x2="-864" y2="611" stroke="#eee" stroke-width="1"></line><line x1="160" y1="93" x2="-800" y2="648" stroke="#eee" stroke-width="1"></line><line x1="224" y1="130" x2="-736" y2="685" stroke="#eee" stroke-width="1"></line><line x1="288" y1="167" x2="-672" y2="722" stroke="#eee" stroke-width="1"></line><line x1="352" y1="204" x2="-608" y2="759" stroke="#eee" stroke-width="1"></line><line x1="416" y1="241" x2="-544" y2="796" stroke="#eee" stroke-width="1"></line><line x1="480" y1="278" x2="-480" y2="833" stroke="#eee" stroke-width="1"></line><line x1="544" y1="315" x2="-416" y2="870" stroke="#eee" stroke-width="1"></line><line x1="608" y1="352" x2="-352" y2="907" stroke="#eee" stroke-width="1"></line><line x1="672" y1="389" x2="-288" y2="944" stroke="#eee" stroke-width="1"></line><line x1="736" y1="426" x2="-224" y2="981" stroke="#eee" stroke-width="1"></line><line x1="-32" y1="19" x2="736" y2="463" stroke="#eee" stroke-width="1"></line><line x1="-96" y1="56" x2="672" y2="500" stroke="#eee" stroke-width="1"></line><line x1="-160" y1="93" x2="608" y2="537" stroke="#eee" stroke-width="1"></line><line x1="-224" y1="130" x2="544" y2="574" stroke="#eee" stroke-width="1"></line><line x1="-288" y1="167" x2="480" y2="611" stroke="#eee" stroke-width="1"></line><line x1="-352" y1="204" x2="416" y2="648" stroke="#eee" stroke-width="1"></line><line x1="-416" y1="241" x2="352" y2="685" stroke="#eee" stroke-width="1"></line><line x1="-480" y1="278" x2="288" y2="722" stroke="#eee" stroke-width="1"></line><line x1="-544" y1="315" x2="224" y2="759" stroke="#eee" stroke-width="1"></line><line x1="-608" y1="352" x2="160" y2="796" stroke="#eee" stroke-width="1"></line><line x1="-672" y1="389" x2="96" y2="833" stroke="#eee" stroke-width="1"></line><line x1="-736" y1="426" x2="32" y2="870" stroke="#eee" stroke-width="1"></line><line x1="-800" y1="463" x2="-32" y2="907" stroke="#eee" stroke-width="1"></line><line x1="-864" y1="500" x2="-96" y2="944" stroke="#eee" stroke-width="1"></line><line x1="-928" y1="537" x2="-160" y2="981" stroke="#eee" stroke-width="1"></line><polygon points="-960 555, -960 565, -192 1009, -192 999" stroke-linejoin="round" stroke="#54626f" stroke-width="1" fill="#f9f9f9"></polygon><polygon points="-192 1009, 768 454, 768 444, -192 999" stroke-linejoin="round" stroke="#54626f" stroke-width="1" fill="#e2e2e2"></polygon></g><g pointer-events=""><g><g><polygon points="-320 555, -128 666, -128 703, -320 814, -384 814, -576 703, -576 666, -384 555" fill="#ffffff" stroke-width="2" stroke="#818181"></polygon><polygon points="-352 574, -160 685, -352 796, -544 685" fill="#e6e7e8" stroke-width="0" stroke="#818181"></polygon></g></g></g><g style="pointer-events:none"><line x1="0" y1="0" x2="-960" y2="555" stroke="#54626f" stroke-width="1"></line><line x1="64" y1="37" x2="-896" y2="592" stroke="#54626f" stroke-width="1"></line><line x1="128" y1="74" x2="-832" y2="629" stroke="#54626f" stroke-width="1"></line><line x1="192" y1="111" x2="-768" y2="666" stroke="#54626f" stroke-width="1"></line><line x1="256" y1="148" x2="-704" y2="703" stroke="#54626f" stroke-width="1"></line><line x1="320" y1="185" x2="-640" y2="740" stroke="#54626f" stroke-width="1"></line><line x1="384" y1="222" x2="-576" y2="777" stroke="#54626f" stroke-width="1"></line><line x1="448" y1="259" x2="-512" y2="814" stroke="#54626f" stroke-width="1"></line><line x1="512" y1="296" x2="-448" y2="851" stroke="#54626f" stroke-width="1"></line><line x1="576" y1="333" x2="-384" y2="888" stroke="#54626f" stroke-width="1"></line><line x1="640" y1="370" x2="-320" y2="925" stroke="#54626f" stroke-width="1"></line><line x1="704" y1="407" x2="-256" y2="962" stroke="#54626f" stroke-width="1"></line><line x1="768" y1="444" x2="-192" y2="999" stroke="#54626f" stroke-width="1"></line><line x1="0" y1="0" x2="768" y2="444" stroke="#54626f" stroke-width="1"></line><line x1="-64" y1="37" x2="704" y2="481" stroke="#54626f" stroke-width="1"></line><line x1="-128" y1="74" x2="640" y2="518" stroke="#54626f" stroke-width="1"></line><line x1="-192" y1="111" x2="576" y2="555" stroke="#54626f" stroke-width="1"></line><line x1="-256" y1="148" x2="512" y2="592" stroke="#54626f" stroke-width="1"></line><line x1="-320" y1="185" x2="448" y2="629" stroke="#54626f" stroke-width="1"></line><line x1="-384" y1="222" x2="384" y2="666" stroke="#54626f" stroke-width="1"></line><line x1="-448" y1="259" x2="320" y2="703" stroke="#54626f" stroke-width="1"></line><line x1="-512" y1="296" x2="256" y2="740" stroke="#54626f" stroke-width="1"></line><line x1="-576" y1="333" x2="192" y2="777" stroke="#54626f" stroke-width="1"></line><line x1="-640" y1="370" x2="128" y2="814" stroke="#54626f" stroke-width="1"></line><line x1="-704" y1="407" x2="64" y2="851" stroke="#54626f" stroke-width="1"></line><line x1="-768" y1="444" x2="0" y2="888" stroke="#54626f" stroke-width="1"></line><line x1="-832" y1="481" x2="-64" y2="925" stroke="#54626f" stroke-width="1"></line><line x1="-896" y1="518" x2="-128" y2="962" stroke="#54626f" stroke-width="1"></line><line x1="-960" y1="555" x2="-192" y2="999" stroke="#54626f" stroke-width="1"></line></g><g pointer-events=""></g><g pointer-events=""><g><g><line x1="-636" y1="478" x2="-170" y2="209" stroke="red" stroke-width="8" opacity="0"></line><line x1="-636" y1="478" x2="-170" y2="209" stroke="#000000" stroke-width="2" stroke-linecap="round"></line><polygon points="-160 204, -186 209, -172 211, -169 218, -160 204" stroke-linejoin="round" fill="#000000" stroke="#000000" stroke-width="1"></polygon></g></g><g><g><line x1="-160" y1="204" x2="-626" y2="473" stroke="red" stroke-width="8" opacity="0"></line><line x1="-160" y1="204" x2="-626" y2="473" stroke="#000000" stroke-width="2" stroke-linecap="round"></line><polygon points="-636 478, -610 473, -623 471, -626 464, -636 478" stroke-linejoin="round" fill="#000000" stroke="#000000" stroke-width="1"></polygon></g></g><g><g><line x1="-352" y1="685" x2="-171" y2="580" stroke="red" stroke-width="8" opacity="0"></line><line x1="-352" y1="685" x2="-171" y2="580" stroke="#000000" stroke-width="2" stroke-linecap="round"></line><polygon points="-161 574, -187 580, -174 581, -171 589, -161 574" stroke-linejoin="round" fill="#000000" stroke="#000000" stroke-width="1"></polygon></g></g><g><g><line x1="0" y1="111" x2="264" y2="264" stroke="red" stroke-width="8" opacity="0"></line><line x1="0" y1="111" x2="264" y2="264" stroke="#000000" stroke-width="2" stroke-linecap="round"></line><polygon points="274 269, 265 255, 261 262, 248 264, 274 269" stroke-linejoin="round" fill="#000000" stroke="#000000" stroke-width="1"></polygon></g></g><g><g><line x1="-80" y1="157" x2="0" y2="111" stroke="red" stroke-width="8" opacity="0"></line><line x1="-80" y1="157" x2="0" y2="111" stroke="#000000" stroke-width="2" stroke-linecap="round"></line></g></g><g><g><line x1="274" y1="269" x2="0" y2="111" stroke="red" stroke-width="8" opacity="0"></line><line x1="274" y1="269" x2="0" y2="111" stroke="#000000" stroke-width="2" stroke-linecap="round"></line></g></g><g><g><line x1="-96" y1="537" x2="-74" y2="524" stroke="red" stroke-width="8" opacity="0"></line><line x1="-96" y1="537" x2="-74" y2="524" stroke="#000000" stroke-width="2" stroke-linecap="round"></line><polygon points="-64 518, -90 523, -76 525, -73 533, -64 518" stroke-linejoin="round" fill="#000000" stroke="#000000" stroke-width="1"></polygon></g></g><g><g><line x1="109" y1="418" x2="150" y2="394" stroke="red" stroke-width="8" opacity="0"></line><line x1="109" y1="418" x2="150" y2="394" stroke="#000000" stroke-width="2" stroke-linecap="round"></line><polygon points="160 389, 134 394, 148 396, 151 403, 160 389" stroke-linejoin="round" fill="#000000" stroke="#000000" stroke-width="1"></polygon></g></g><g><g><line x1="0" y1="111" x2="-70" y2="152" stroke="red" stroke-width="8" opacity="0"></line><line x1="0" y1="111" x2="-70" y2="152" stroke="#000000" stroke-width="2" stroke-linecap="round"></line><polygon points="-80 157, -54 152, -68 150, -71 142, -80 157" stroke-linejoin="round" fill="#000000" stroke="#000000" stroke-width="1"></polygon></g></g><g><g><line x1="240" y1="342" x2="278" y2="320" stroke="red" stroke-width="8" opacity="0"></line><line x1="240" y1="342" x2="278" y2="320" stroke="#000000" stroke-width="2" stroke-linecap="round"></line><polygon points="288 315, 262 320, 276 322, 279 329, 288 315" stroke-linejoin="round" fill="#000000" stroke="#000000" stroke-width="1"></polygon></g></g></g><g pointer-events=""><g><g transform="translate(0 0)"><svg x="-176" y="99" height="113.438" width="96" viewBox="0 0 25.400052 30.013873"><g transform="translate(412.599 -86.957)"><path d="M-412.333 102.348v4.786l8.29 4.785h8.289l8.29-4.785v-4.786l-8.29-4.786h-8.29z" fill="#3c3c3c" fill-rule="evenodd"></path><path d="M-395.754 111.92l8.29-4.786v4.785l-8.29 4.786z" fill="#090909" fill-rule="evenodd"></path><path d="M-404.044 111.92h8.29v4.785h-8.29z" fill="#232323" fill-rule="evenodd"></path><path d="M-412.333 107.134v4.785l8.29 4.786v-4.786z" fill="#232323" fill-rule="evenodd"></path><path d="M-412.333 107.134l8.29 4.785h8.289l8.29-4.785M-404.044 111.92v4.785M-395.754 111.92v4.785" fill="none" stroke="#000" stroke-width=".26588"></path><path d="M-412.333 102.348v9.571l8.29 4.786h8.289l8.29-4.786v-9.571l-8.29-4.786h-8.29z" fill="none" stroke="#000000" stroke-width=".53176"></path><path d="M-412.333 97.178v4.786l8.29 4.786h8.289l8.29-4.786v-4.786l-8.29-4.786h-8.29z" fill="#3c3c3c" fill-rule="evenodd"></path><path d="M-395.754 106.75l8.29-4.786v4.786l-8.29 4.786z" fill="#090909" fill-rule="evenodd"></path><path d="M-404.044 106.75h8.29v4.786h-8.29z" fill="#232323" fill-rule="evenodd"></path><path d="M-412.333 101.964v4.786l8.29 4.786v-4.786z" fill="#232323" fill-rule="evenodd"></path><path d="M-412.333 101.964l8.29 4.786h8.289l8.29-4.786M-404.044 106.75v4.786M-395.754 106.75v4.786" fill="none" stroke="#000" stroke-width=".266"></path><path d="M-412.333 97.178v9.572l8.29 4.786h8.289l8.29-4.786v-9.572l-8.29-4.786h-8.29z" fill="none" stroke="#000000" stroke-width=".532"></path><path d="M-412.333 92.01v4.785l8.29 4.786h8.289l8.29-4.786v-4.786l-8.29-4.786h-8.29z" fill="#3c3c3c" fill-rule="evenodd"></path><path d="M-395.754 101.58l8.29-4.785v4.786l-8.29 4.786z" fill="#090909" fill-rule="evenodd"></path><path d="M-404.044 101.58h8.29v4.787h-8.29z" fill="#232323" fill-rule="evenodd"></path><path d="M-412.333 96.795v4.786l8.29 4.786v-4.786z" fill="#232323" fill-rule="evenodd"></path><path d="M-412.333 96.795l8.29 4.786h8.289l8.29-4.786M-404.044 101.58v4.787M-395.754 101.58v4.787" fill="none" stroke="#000" stroke-width=".266"></path><path d="M-412.333 92.01v9.57l8.29 4.787h8.289l8.29-4.786v-9.572l-8.29-4.786h-8.29z" fill="none" stroke="#000000" stroke-width=".532"></path><circle cx="-136.478" cy="325.284" fill="#f4b934" r="5.801" transform="scale(1.22475 .7071) rotate(45)"></circle><g style="line-height:0%" font-family="sans-serif" font-size="3.191" stroke-width=".266"><path style="line-height:1.25;-inkscape-font-specification:&#x27;Droid Serif&#x27;" d="M-399.242 93.57l.48-.601q.222-.275.177-.448-.04-.17-.467-.416l-.507-.293 1.065-.614.937.541q.825.476.92.934.1.46-.417 1.114l-3.452 4.39-1.622-.937 1.654-2.121-3.729.923-1.622-.936z" fill="#fff" font-family="Droid Serif" font-size="9.971"></path></g></g></svg></g></g><g><g transform="translate(0 0)"><svg x="274" y="173" height="148.981" width="91.956" viewBox="0 0 24.330047 39.417932"><g transform="translate(240.35 -115.335)"><path d="M-240.082 146.018v4.445l6.973 4.025v-4.445z" fill="#d2d2d4" fill-rule="evenodd"></path><path d="M-233.11 150.043l9.858-.003v4.445l-9.857.003z" fill="#d2d2d4" fill-rule="evenodd"></path><path d="M-223.252 150.04l6.967-4.027v4.445l-6.967 4.028z" fill="#b8b8bb" fill-rule="evenodd"></path><path d="M-223.252 150.04v4.445" fill="none" stroke="#83838a" stroke-width=".267"></path><path d="M302.99-2468.894l-36.732 47.87-59.823 7.876-47.87-36.732-7.875-59.823 36.732-47.87 59.822-7.876 47.87 36.732z" fill="#848586" stroke="#83838a" stroke-width="2.151" transform="matrix(.0995 .07485 -.12957 .05747 -573.282 269.258)"></path><path d="M-240.082 139.12v4.445l6.973 4.025v-4.445z" fill="#d2d2d4" fill-rule="evenodd"></path><path d="M-233.11 143.145l9.858-.003v4.445l-9.857.003z" fill="#d2d2d4" fill-rule="evenodd"></path><path d="M-223.252 143.143l6.967-4.028v4.445l-6.967 4.028z" fill="#b8b8bb" fill-rule="evenodd"></path><path d="M302.99-2468.894l-36.732 47.87-59.823 7.876-47.87-36.732-7.875-59.823 36.732-47.87 59.822-7.876 47.87 36.732z" fill="#848586" stroke="#83838a" stroke-width="2.151" transform="matrix(.0995 .07485 -.12957 .05747 -573.282 262.36)"></path><path d="M-240.082 132.222v4.445l6.973 4.025v-4.445z" fill="#d2d2d4" fill-rule="evenodd"></path><path d="M-233.11 136.247l9.858-.003v4.445l-9.857.003z" fill="#d2d2d4" fill-rule="evenodd"></path><path d="M-223.252 136.245l6.967-4.028v4.445l-6.967 4.028z" fill="#b8b8bb" fill-rule="evenodd"></path><path d="M302.99-2468.894l-36.732 47.87-59.823 7.876-47.87-36.732-7.875-59.823 36.732-47.87 59.822-7.876 47.87 36.732z" fill="#848586" stroke="#83838a" stroke-width="2.151" transform="matrix(.0995 .07485 -.12957 .05747 -573.282 255.462)"></path><path d="M-240.082 125.324v4.445l6.973 4.025v-4.445z" fill="#d2d2d4" fill-rule="evenodd"></path><path d="M-233.11 129.349l9.858-.003v4.445l-9.857.003z" fill="#d2d2d4" fill-rule="evenodd"></path><path d="M-223.252 129.347l6.967-4.028v4.445l-6.967 4.028z" fill="#b8b8bb" fill-rule="evenodd"></path><path d="M-223.252 129.347l-9.857.002-6.973-4.025-.003-5.694 6.967-4.028 9.857-.002 6.973 4.025.003 5.694z" fill="#ececed"></path><path d="M-240.082 125.324l6.964 4.074 9.866-.053 6.967-4.026M-233.118 129.398l.008 4.396M-223.252 129.345v4.445" fill="none" stroke="#83838a" stroke-width=".267"></path><path d="M-240.085 119.63l.003 10.139 6.972 4.025 9.857-.003 6.966-4.027-.002-10.14-6.972-4.025-9.857.003z" fill="none" stroke="#000000" stroke-width=".529"></path><path d="M-223.252 136.242v4.446M-233.11 136.247v4.445" fill="none" stroke="#83838a" stroke-width=".267"></path><path d="M-240.082 132.222v4.445l6.973 4.025 9.857-.003 6.966-4.027.002-4.446-6.968 4.026-9.865.054z" fill="none" stroke="#000000" stroke-width=".529"></path><path d="M-233.11 143.145v4.445M-223.252 143.141v4.446" fill="none" stroke="#83838a" stroke-width=".267"></path><path d="M-240.082 139.12v4.445l6.973 4.025 9.857-.003 6.966-4.026.002-4.446-6.968 4.028-9.857.003z" fill="none" stroke="#000000" stroke-width=".529"></path><path d="M-240.082 146.018v4.445l6.973 4.025 9.857-.003 6.967-4.026v-4.445l-6.967 4.026-9.857.003z" fill="none" stroke="#000000" stroke-width=".529"></path><path d="M-233.11 150.043v4.445" fill="none" stroke="#83838a" stroke-width=".267"></path><circle cx="-9.268" cy="254.217" fill="#4286c5" r="5.832" transform="scale(1.22475 .7071) rotate(45)"></circle><path d="M-227.78 122.24q.75.433 1.536.73.788.298 1.43.362l-.538.31q-.218.127-.73.046-.513-.08-1.181-.34-.669-.26-1.327-.64-.657-.38-1.108-.766-.45-.386-.59-.681-.138-.296.08-.422l.537-.31q.111.37.626.825.516.454 1.265.887zm-2.428 1.403q.749.432 1.536.73.788.297 1.43.361l-.538.31q-.218.127-.73.046-.513-.08-1.182-.34-.668-.26-1.326-.64-.657-.38-1.108-.766-.45-.386-.59-.681-.139-.296.08-.422l.537-.31q.11.37.626.825.516.454 1.265.887zm1.214-.701q.749.432 1.536.73.788.297 1.43.361l-.538.31q-.218.126-.73.046-.513-.08-1.181-.34-.669-.26-1.327-.64-.657-.38-1.108-.766-.45-.386-.59-.681-.138-.296.08-.422l.537-.31q.111.37.626.825.516.454 1.265.887zm3.642-2.103q.657.38 1.108.766.45.386.59.681.139.296-.08.422l-.404.234q-.218.126-.73.045-.513-.08-1.181-.34-.67-.26-1.327-.64-.657-.38-1.108-.766-.45-.386-.59-.681-.139-.296.08-.422l.404-.234q.218-.126.73-.045.513.08 1.182.34.668.26 1.326.64z" fill="#fff"></path></g></svg></g></g><g><g transform="translate(0 0)"><svg x="144" y="284" height="113.438" width="96" viewBox="0 0 25.400052 30.013873"><g transform="translate(412.599 -86.957)"><path d="M-412.333 102.348v4.786l8.29 4.785h8.289l8.29-4.785v-4.786l-8.29-4.786h-8.29z" fill="#3c3c3c" fill-rule="evenodd"></path><path d="M-395.754 111.92l8.29-4.786v4.785l-8.29 4.786z" fill="#090909" fill-rule="evenodd"></path><path d="M-404.044 111.92h8.29v4.785h-8.29z" fill="#232323" fill-rule="evenodd"></path><path d="M-412.333 107.134v4.785l8.29 4.786v-4.786z" fill="#232323" fill-rule="evenodd"></path><path d="M-412.333 107.134l8.29 4.785h8.289l8.29-4.785M-404.044 111.92v4.785M-395.754 111.92v4.785" fill="none" stroke="#000" stroke-width=".26588"></path><path d="M-412.333 102.348v9.571l8.29 4.786h8.289l8.29-4.786v-9.571l-8.29-4.786h-8.29z" fill="none" stroke="#000000" stroke-width=".53176"></path><path d="M-412.333 97.178v4.786l8.29 4.786h8.289l8.29-4.786v-4.786l-8.29-4.786h-8.29z" fill="#3c3c3c" fill-rule="evenodd"></path><path d="M-395.754 106.75l8.29-4.786v4.786l-8.29 4.786z" fill="#090909" fill-rule="evenodd"></path><path d="M-404.044 106.75h8.29v4.786h-8.29z" fill="#232323" fill-rule="evenodd"></path><path d="M-412.333 101.964v4.786l8.29 4.786v-4.786z" fill="#232323" fill-rule="evenodd"></path><path d="M-412.333 101.964l8.29 4.786h8.289l8.29-4.786M-404.044 106.75v4.786M-395.754 106.75v4.786" fill="none" stroke="#000" stroke-width=".266"></path><path d="M-412.333 97.178v9.572l8.29 4.786h8.289l8.29-4.786v-9.572l-8.29-4.786h-8.29z" fill="none" stroke="#000000" stroke-width=".532"></path><path d="M-412.333 92.01v4.785l8.29 4.786h8.289l8.29-4.786v-4.786l-8.29-4.786h-8.29z" fill="#3c3c3c" fill-rule="evenodd"></path><path d="M-395.754 101.58l8.29-4.785v4.786l-8.29 4.786z" fill="#090909" fill-rule="evenodd"></path><path d="M-404.044 101.58h8.29v4.787h-8.29z" fill="#232323" fill-rule="evenodd"></path><path d="M-412.333 96.795v4.786l8.29 4.786v-4.786z" fill="#232323" fill-rule="evenodd"></path><path d="M-412.333 96.795l8.29 4.786h8.289l8.29-4.786M-404.044 101.58v4.787M-395.754 101.58v4.787" fill="none" stroke="#000" stroke-width=".266"></path><path d="M-412.333 92.01v9.57l8.29 4.787h8.289l8.29-4.786v-9.572l-8.29-4.786h-8.29z" fill="none" stroke="#000000" stroke-width=".532"></path><circle cx="-136.478" cy="325.284" fill="#f4b934" r="5.801" transform="scale(1.22475 .7071) rotate(45)"></circle><g style="line-height:0%" font-family="sans-serif" font-size="3.191" stroke-width=".266"><path style="line-height:1.25;-inkscape-font-specification:&#x27;Droid Serif&#x27;" d="M-399.242 93.57l.48-.601q.222-.275.177-.448-.04-.17-.467-.416l-.507-.293 1.065-.614.937.541q.825.476.92.934.1.46-.417 1.114l-3.452 4.39-1.622-.937 1.654-2.121-3.729.923-1.622-.936z" fill="#fff" font-family="Droid Serif" font-size="9.971"></path></g></g></svg></g></g><g><g transform="translate(0 0)"><svg x="-112" y="360" height="165.108" width="227" viewBox="0 0 60.060411 43.684746"><path d="M2647.212-1556.832l-31.177 18-31.177-18v-36l31.177-18 31.177 18z" fill="#d2d2d4" stroke="#83838a" stroke-width="1.723" transform="matrix(0 -.16718 -.14432 -.08359 -188.401 313.367)"></path><path d="M2.895 20.22l5.302 3.066 33.275-19.33L36.276.947z" fill="#ececed" fill-rule="evenodd" stroke="#83838a" stroke-width=".26458400000000004"></path><path d="M2647.212-1556.832l-31.177 18-31.177-18v-36l31.177-18 31.177 18z" fill="#d2d2d4" stroke="#83838a" stroke-width="1.723" transform="matrix(0 -.16718 -.14432 -.08359 -213.883 331.997)"></path><path d="M2647.212-1556.832l-31.177 18-31.177-18v-36l31.177-18 31.177 18z" fill="#d2d2d4" stroke="#83838a" stroke-width="1.703" transform="matrix(0 -.16718 -.14432 -.08359 -213.99 342.365)"></path><path d="M2647.212-1556.832l-31.177 18-31.177-18v-36l31.177-18 31.177 18z" fill="#d2d2d4" stroke="#83838a" stroke-width="1.703" transform="matrix(0 -.16718 -.14432 -.08359 -221.782 332.64)"></path><path d="M2647.212-1556.832l-31.177 18-31.177-18v-36l31.177-18 31.177 18z" fill="#d2d2d4" stroke="#83838a" stroke-width="1.723" transform="matrix(0 -.16718 -.14432 -.08359 -180.502 312.725)"></path><path d="M2647.212-1556.832l-31.177 18-31.177-18v-36l31.177-18 31.177 18z" fill="#d2d2d4" stroke="#83838a" stroke-width="1.723" transform="matrix(0 -.16718 -.14432 -.08359 -180.608 323.092)"></path><path d="M2647.212-1556.832l-31.177 18-31.177-18v-36l31.177-18 31.177 18z" fill="#d2d2d4" stroke="#83838a" stroke-width="1.723" transform="matrix(0 -.16718 -.14432 -.08359 -172.709 322.45)"></path><path d="M23.718 32.238l33.38-19.272M26.381 39.03l33.381-19.273M23.783 42.737l33.382-19.272M15.884 43.379l33.381-19.273M18.588 29.304l33.295-19.35" fill="none" stroke="#83838a" stroke-width=".26756057000000005"></path><path d="M23.783 32.313l2.598 6.717 33.381-19.273-2.663-6.791z" fill="#b8b8bb" fill-rule="evenodd" stroke="#83838a" stroke-width=".26458400000000004"></path><path d="M2647.212-1556.832l-31.177 18-31.177-18v-36l31.177-18 31.177 18z" fill="#d2d2d4" stroke="#83838a" stroke-width="1.703" transform="matrix(0 -.16718 -.14432 -.08359 -206.09 341.723)"></path><path d="M15.99 22.587L49.371 3.315M10.795 19.578L44.176.306M2.855 20.193L36.235.92" fill="none" stroke="#83838a" stroke-width=".26756057000000005"></path><path d="M26.381 39.03l-2.598 3.707 33.382-19.272 2.597-3.708z" fill="#9d9da3" fill-rule="evenodd" stroke="#83838a" stroke-width=".26458400000000004"></path><path d="M18.482 39.672l-2.598 3.707 4.51-2.604z" fill="#9d9da3" fill-rule="evenodd" stroke="#83838a" stroke-width=".26756057000000005"></path><path d="M18.588 29.304l5.195 3.01L57.1 12.965l-5.216-3.012z" fill="#ececed" fill-rule="evenodd" stroke="#83838a" stroke-width=".26458400000000004"></path><path d="M15.99 22.587l2.555 6.678 33.338-19.31-2.512-6.64z" fill="#b8b8bb" fill-rule="evenodd" stroke="#83838a" stroke-width=".26458400000000004"></path><path d="M21.836 11.715l-.927.535-.463-.267.927-.535zm1.622-.134l-1.854 1.07-.463-.267 1.854-1.07zm-.232 2.275l-.231.134-3.708-2.141 2.78-1.606.233.134-2.55 1.472 3.477 2.007zm.464-1.606l-1.39.803-.464-.267 1.39-.803zm1.39 0l-2.085 1.204-.464-.267 2.086-1.204z" fill="#000000"></path><path d="M10.795 19.578l5.195 3.01L49.371 3.314 44.176.305z" fill="#ececed" fill-rule="evenodd" stroke="#83838a" stroke-width=".26458400000000004"></path><path d="M2647.212-1556.832l-31.177 18-31.177-18v-36l31.177-18 31.177 18z" fill="#5b5b62" stroke="#000000" stroke-width="2.392" transform="matrix(0 -.11907 -.10278 -.05953 -148.476 244.02)"></path><path d="M.298 23.927l2.597-3.707L36.276.947l3.39 1.963 4.51-2.604 5.195 3.009 2.512 6.64 5.216 3.01 2.663 6.792-2.597 3.708-33.382 19.272-3.394-1.966-4.505 2.608-5.195-3.01-2.598-6.716-5.196-3.009z" fill="none" stroke="#000000" stroke-width=".5291680000000001"></path><path d="M2647.212-1556.832l-31.177 18-31.177-18v-36l31.177-18 31.177 18z" fill="#5b5b62" stroke="#000000" stroke-width="2.392" transform="matrix(0 -.11907 -.10278 -.05953 -140.683 253.747)"></path><path d="M2647.212-1556.832l-31.177 18-31.177-18v-36l31.177-18 31.177 18z" fill="#5b5b62" stroke="#000000" stroke-width="2.392" transform="matrix(0 -.11907 -.10278 -.05953 -148.583 254.388)"></path><path d="M2647.212-1556.832l-31.177 18-31.177-18v-36l31.177-18 31.177 18z" fill="#5b5b62" stroke="#000000" stroke-width="2.392" transform="matrix(0 -.11907 -.10278 -.05953 -156.376 244.663)"></path><path d="M29.215 11.067l-.927.535-.464-.267.927-.535zm1.622-.134l-1.854 1.07-.464-.267 1.854-1.07zm-.232 2.275l-.232.134-3.708-2.141 2.781-1.606.232.134-2.55 1.472 3.477 2.007zm.464-1.606l-1.391.803-.463-.267 1.39-.803zm1.39 0l-2.086 1.205-.463-.268 2.086-1.204zM37.148 20.465l-.927.535-.463-.268.927-.535zm1.623-.134l-1.855 1.07-.463-.267 1.854-1.07zm-.232 2.275l-.232.133-3.708-2.14 2.78-1.606.233.134-2.55 1.472 3.477 2.007zM39.002 21l-1.39.803-.464-.268 1.39-.803zm1.39 0l-2.085 1.204-.463-.268 2.085-1.204z" fill="#000000"></path></svg></g></g><g><g transform="translate(0 0)"><svg x="-696" y="413" height="95.068" width="63" viewBox="0 0 16.668756 25.153389"><path d="M16.668 22.903q0 1.64-.864 2.091-.865.451-2.297-.376L3.161 18.645q-1.433-.827-2.297-2.276Q.001 14.921 0 13.28q0-.723.042-1.39.042-.666.166-1.394.124-.727.313-1.302.19-.575.51-1.039.319-.464.733-.683.414-.22 1.012-.147.598.073 1.32.49.107.06.497.58.391.52.882 1.165.491.646 1.279 1.394.788.75 1.58 1.207.793.458 1.58.618.788.161 1.28.083.49-.079.881-.147.39-.069.497-.007.722.416 1.32 1.035.598.619 1.013 1.315.414.697.734 1.531t.509 1.627q.19.793.313 1.664.124.872.166 1.586.042.713.042 1.438zM12.88 8.51q0 2.173-1.332 2.942-1.332.769-3.214-.318-1.882-1.086-3.214-3.393Q3.79 5.434 3.79 3.26q0-2.173 1.331-2.942 1.332-.77 3.214.317t3.214 3.394q1.332 2.306 1.332 4.48z" fill="#444"></path></svg></g></g><g><g transform="translate(0 0)"><svg x="-206" y="492" height="108.05" width="123" viewBox="0 0 32.543749 28.588253"><path d="M10.115 6.02v14.218l7.873-4.318V1.474z" fill="#090909" fill-rule="evenodd" stroke="#000" stroke-width=".268"></path><path d="M.265 2.228l9.85 3.791v14.219l-9.85-8.531z" fill="#232323" fill-rule="evenodd" stroke="#000" stroke-width=".265"></path><path d="M10.115 6.02l7.873-4.546L3.548.332.265 2.228z" fill="#3c3c3c" fill-rule="evenodd" stroke="#000" stroke-width=".265"></path><path d="M.265 11.707l9.85 8.53 7.873-4.317V1.474L3.392.271.265 2.076z" fill="none" stroke="#000000" stroke-width=".529"></path><path d="M22.429 3.65L14.22 8.39l14.828 10.397 3.231-1.866z" fill="#3c3c3c" fill-rule="evenodd" stroke="#000" stroke-width=".268"></path><path d="M14.22 8.39V22.61l14.777 5.687.051-9.509z" fill="#232323" fill-rule="evenodd" stroke="#000" stroke-width=".265"></path><path d="M29.048 18.787l3.231-1.866V26.4l-3.282 1.897z" fill="#090909" fill-rule="evenodd" stroke="#000" stroke-width=".265"></path><path d="M22.429 3.65L14.22 8.39V22.61l14.777 5.687 3.282-1.897v-9.478z" fill="none" stroke="#000000" stroke-width=".529"></path><path d="M21.09 20.43q.163.375.048.64t-.44.265q-.326 0-.671-.265-.346-.265-.509-.64-.162-.374-.047-.639t.44-.265q.326 0 .671.265.346.265.509.64zm1.573-1.808q.08.184.022.318-.059.134-.218.134-.16 0-.335-.134-.176-.135-.255-.318-.082-.187-.024-.32.058-.132.22-.132.163 0 .336.132.173.133.254.32zm1.573 3.617q.08.184.021.318-.058.134-.218.134t-.335-.134q-.175-.135-.255-.318-.081-.187-.023-.32.057-.132.22-.132t.335.132q.173.133.255.32zm-1.826-1.487l-.284-.654q-.016-.035-.052-.068-.036-.034-.065-.038l-.513-.084q-.088-.124-.215-.269.03-.17.1-.406.006-.035-.01-.07-.018-.043-.05-.068-.117-.106-.39-.316-.275-.21-.333-.21-.034 0-.054.025l-.215.317q-.143-.067-.284-.11-.2-.38-.309-.547-.058-.085-.129-.085h-.571q-.034 0-.05.027-.016.026-.004.062l.164.54q-.089.036-.182.11l-.5-.315q-.032-.024-.071-.024-.034 0-.053.028-.238.47-.196.565.014.032.05.067.053.05.208.187.155.138.238.216-.003.155.018.29l-.43.084q-.029.004-.038.034-.008.03.008.069l.285.653q.015.036.051.069.036.033.065.037l.513.085q.088.124.215.268-.03.17-.1.407-.005.038.01.07.018.043.052.07.113.107.388.315.275.208.333.209.034 0 .054-.025l.215-.318q.132.064.286.113.2.382.307.544.058.085.129.085h.571q.034 0 .05-.027.016-.026.004-.062l-.164-.54q.089-.035.183-.11l.499.315q.035.024.072.024.033 0 .052-.028.238-.47.196-.565-.014-.032-.05-.067-.062-.057-.212-.19-.15-.135-.23-.213-.004-.169-.022-.29l.431-.08q.028-.007.036-.038.008-.03-.008-.068zm1.147-1.883l-.215-.494q-.025-.057-.505-.11-.079-.095-.172-.183-.017-.4-.056-.488-.006-.014-.023-.024-.483-.251-.49-.251-.024 0-.069.166-.044.166-.055.24-.064-.007-.095-.007t-.09.007q-.075-.074-.264-.24-.188-.166-.213-.166-.006 0-.272.25-.008.011-.002.025.039.088.369.488-.017.088-.012.183-.435.053-.41.11l.215.494q.024.057.505.11.084.102.172.184.017.399.055.487.006.014.023.025l.138.07.234.12q.11.057.117.057.024 0 .07-.164.045-.164.056-.239.064.007.095.007.03 0 .089-.007.266.251.455.396l.021.007q.012 0 .273-.247.008-.01.002-.025-.038-.088-.368-.487.017-.082.012-.184.435-.053.41-.11zm1.572 3.617l-.215-.494q-.024-.057-.505-.11-.078-.095-.172-.184-.017-.399-.055-.487-.006-.014-.023-.025-.484-.25-.49-.25-.025 0-.069.165-.044.166-.055.24-.065-.006-.096-.006-.03 0-.089.007-.075-.075-.264-.24-.189-.166-.213-.166-.006 0-.272.25-.008.01-.002.025.038.088.369.487-.017.088-.013.184-.434.053-.41.11l.215.494q.025.057.505.11.085.102.173.183.016.4.055.488.006.014.023.024l.138.07.233.121q.111.057.117.057.025 0 .07-.165.045-.164.056-.238.065.007.095.007.031 0 .09-.007.265.25.454.396l.022.007q.012 0 .273-.248.008-.01.002-.024-.038-.088-.369-.488.017-.08.013-.183.434-.053.41-.11z" fill="#f4b934"></path></svg></g></g></g><g pointer-events=""><g><g transform="translate(0 0)"><svg x="-352" y="685" overflow="visible"><g transform="scale(0.5660000000000001) matrix(0.707 0.409 -0.707 0.409 0 0)"><svg x="-222.5" y="-222" overflow="visible"><image href="https://cloudcraft-images.s3.amazonaws.com/bd2b5b9d-5222-4339-ac28-9801c4364560/a.png" width="445" height="444"></image></svg></g></svg></g></g></g><g pointer-events=""></g><g pointer-events=""><g><g transform="translate(0 0)"><svg x="-336" y="842" overflow="visible" style="user-select:none"><text stroke="#ffffff" stroke-width="4" font-family="Open Sans" y="36.5" font-size="25pt" fill="#f5b720" font-weight="bold" transform="matrix(0.707 -0.409 0.707 0.409 0 0)"><tspan x="8" dy="0">User Environment</tspan><tspan x="8" dy="1.1em">-Generate Traces</tspan></text><text font-family="Open Sans" y="36.5" font-size="25pt" fill="#f5b720" font-weight="bold" transform="matrix(0.707 -0.409 0.707 0.409 0 0)"><tspan x="8" dy="0">User Environment</tspan><tspan x="8" dy="1.1em">-Generate Traces</tspan></text></svg></g></g><g><g transform="translate(0 0)"><svg x="112" y="453" overflow="visible" style="user-select:none"><text stroke="#ffffff" stroke-width="4" font-family="Open Sans" y="36.5" font-size="25pt" fill="#f5b720" font-weight="bold" transform="matrix(0.707 0.409 -0.707 0.409 0 0)"><tspan x="8" dy="0">Trace Collector</tspan><tspan x="8" dy="1.1em">Kinesis Stream</tspan><tspan x="8" dy="1.1em">[Same Region]</tspan></text><text font-family="Open Sans" y="36.5" font-size="25pt" fill="#f5b720" font-weight="bold" transform="matrix(0.707 0.409 -0.707 0.409 0 0)"><tspan x="8" dy="0">Trace Collector</tspan><tspan x="8" dy="1.1em">Kinesis Stream</tspan><tspan x="8" dy="1.1em">[Same Region]</tspan></text></svg></g></g><g><g transform="translate(0 0)"><svg x="256" y="370" overflow="visible" style="user-select:none"><text stroke="#ffffff" stroke-width="4" font-family="Open Sans" y="36.5" font-size="25pt" fill="#f5b720" font-weight="bold" transform="matrix(0.707 0.409 -0.707 0.409 0 0)"><tspan x="8" dy="0">Trace Analysis</tspan><tspan x="8" dy="1.1em">Lambda</tspan></text><text font-family="Open Sans" y="36.5" font-size="25pt" fill="#f5b720" font-weight="bold" transform="matrix(0.707 0.409 -0.707 0.409 0 0)"><tspan x="8" dy="0">Trace Analysis</tspan><tspan x="8" dy="1.1em">Lambda</tspan></text></svg></g></g><g><g transform="translate(0 0)"><svg x="384" y="296" overflow="visible" style="user-select:none"><text stroke="#ffffff" stroke-width="4" font-family="Open Sans" y="36.5" font-size="25pt" fill="#f5b720" font-weight="bold" transform="matrix(0.707 0.409 -0.707 0.409 0 0)"><tspan x="8" dy="0">Architecture Data</tspan><tspan x="8" dy="1.1em">DynamoDB</tspan></text><text font-family="Open Sans" y="36.5" font-size="25pt" fill="#f5b720" font-weight="bold" transform="matrix(0.707 0.409 -0.707 0.409 0 0)"><tspan x="8" dy="0">Architecture Data</tspan><tspan x="8" dy="1.1em">DynamoDB</tspan></text></svg></g></g><g><g transform="translate(0 0)"><svg x="-64" y="185" overflow="visible" style="user-select:none"><text stroke="#ffffff" stroke-width="4" font-family="Open Sans" y="36.5" font-size="25pt" fill="#f5b720" font-weight="bold" transform="matrix(0.707 0.409 -0.707 0.409 0 0)"><tspan x="8" dy="0">Dashboard</tspan><tspan x="8" dy="1.1em">Lambda</tspan></text><text font-family="Open Sans" y="36.5" font-size="25pt" fill="#f5b720" font-weight="bold" transform="matrix(0.707 0.409 -0.707 0.409 0 0)"><tspan x="8" dy="0">Dashboard</tspan><tspan x="8" dy="1.1em">Lambda</tspan></text></svg></g></g><g><g transform="translate(0 0)"><svg x="-32" y="574" overflow="visible" style="user-select:none"><text stroke="#ffffff" stroke-width="4" font-family="Open Sans" y="35.36" font-size="24pt" fill="#f5b720" font-weight="bold" transform="matrix(0.707 0.409 -0.707 0.409 0 0)"><tspan x="8" dy="0">tc.region.epsagon.com</tspan><tspan x="8" dy="1.1em">API Gateway</tspan></text><text font-family="Open Sans" y="35.36" font-size="24pt" fill="#f5b720" font-weight="bold" transform="matrix(0.707 0.409 -0.707 0.409 0 0)"><tspan x="8" dy="0">tc.region.epsagon.com</tspan><tspan x="8" dy="1.1em">API Gateway</tspan></text></svg></g></g></g></g></g></svg>