<?xml version="1.0" standalone="no"?>
<!DOCTYPE svg PUBLIC "-//W3C//DTD SVG 1.1//EN"
  "http://www.w3.org/Graphics/SVG/1.1/DTD/svg11.dtd">
<svg version="1.1" xmlns="http://www.w3.org/2000/svg" width="1920" height="1080" viewBox="-1040.888888888889 -32 1889.7777777777778 1063"><defs><style type="text/css">@import url(&#x27;https://fonts.googleapis.com/css?family=Open+Sans:400,700&#x27;);</style></defs><g><filter id="dropshadow" height="130%"><feGaussianBlur in="SourceAlpha" stdDeviation="3"></feGaussianBlur><feOffset dx="3" dy="6" result="offsetblur"></feOffset><feComponentTransfer><feFuncA type="linear" slope="0.4"></feFuncA></feComponentTransfer><feMerge><feMergeNode></feMergeNode><feMergeNode in="SourceGraphic"></feMergeNode></feMerge></filter><g><g style="pointer-events:none"><line x1="32" y1="19" x2="-928" y2="574" stroke="#eee" stroke-width="1"></line><line x1="96" y1="56" x2="-864" y2="611" stroke="#eee" stroke-width="1"></line><line x1="160" y1="93" x2="-800" y2="648" stroke="#eee" stroke-width="1"></line><line x1="224" y1="130" x2="-736" y2="685" stroke="#eee" stroke-width="1"></line><line x1="288" y1="167" x2="-672" y2="722" stroke="#eee" stroke-width="1"></line><line x1="352" y1="204" x2="-608" y2="759" stroke="#eee" stroke-width="1"></line><line x1="416" y1="241" x2="-544" y2="796" stroke="#eee" stroke-width="1"></line><line x1="480" y1="278" x2="-480" y2="833" stroke="#eee" stroke-width="1"></line><line x1="544" y1="315" x2="-416" y2="870" stroke="#eee" stroke-width="1"></line><line x1="608" y1="352" x2="-352" y2="907" stroke="#eee" stroke-width="1"></line><line x1="672" y1="389" x2="-288" y2="944" stroke="#eee" stroke-width="1"></line><line x1="736" y1="426" x2="-224" y2="981" stroke="#eee" stroke-width="1"></line><line x1="-32" y1="19" x2="736" y2="463" stroke="#eee" stroke-width="1"></line><line x1="-96" y1="56" x2="672" y2="500" stroke="#eee" stroke-width="1"></line><line x1="-160" y1="93" x2="608" y2="537" stroke="#eee" stroke-width="1"></line><line x1="-224" y1="130" x2="544" y2="574" stroke="#eee" stroke-width="1"></line><line x1="-288" y1="167" x2="480" y2="611" stroke="#eee" stroke-width="1"></line><line x1="-352" y1="204" x2="416" y2="648" stroke="#eee" stroke-width="1"></line><line x1="-416" y1="241" x2="352" y2="685" stroke="#eee" stroke-width="1"></line><line x1="-480" y1="278" x2="288" y2="722" stroke="#eee" stroke-width="1"></line><line x1="-544" y1="315" x2="224" y2="759" stroke="#eee" stroke-width="1"></line><line x1="-608" y1="352" x2="160" y2="796" stroke="#eee" stroke-width="1"></line><line x1="-672" y1="389" x2="96" y2="833" stroke="#eee" stroke-width="1"></line><line x1="-736" y1="426" x2="32" y2="870" stroke="#eee" stroke-width="1"></line><line x1="-800" y1="463" x2="-32" y2="907" stroke="#eee" stroke-width="1"></line><line x1="-864" y1="500" x2="-96" y2="944" stroke="#eee" stroke-width="1"></line><line x1="-928" y1="537" x2="-160" y2="981" stroke="#eee" stroke-width="1"></line><polygon points="-960 555, -960 565, -192 1009, -192 999" stroke-linejoin="round" stroke="#54626f" stroke-width="1" fill="#f9f9f9"></polygon><polygon points="-192 1009, 768 454, 768 444, -192 999" stroke-linejoin="round" stroke="#54626f" stroke-width="1" fill="#e2e2e2"></polygon></g><g pointer-events=""><g><g><polygon points="-288 574, -96 685, -96 722, -288 833, -352 833, -544 722, -544 685, -352 574" fill="#ffffff" stroke-width="2" stroke="#818181"></polygon><polygon points="-320 592, -128 703, -320 814, -512 703" fill="#e6e7e8" stroke-width="0" stroke="#818181"></polygon></g></g></g><g style="pointer-events:none"><line x1="0" y1="0" x2="-960" y2="555" stroke="#54626f" stroke-width="1"></line><line x1="64" y1="37" x2="-896" y2="592" stroke="#54626f" stroke-width="1"></line><line x1="128" y1="74" x2="-832" y2="629" stroke="#54626f" stroke-width="1"></line><line x1="192" y1="111" x2="-768" y2="666" stroke="#54626f" stroke-width="1"></line><line x1="256" y1="148" x2="-704" y2="703" stroke="#54626f" stroke-width="1"></line><line x1="320" y1="185" x2="-640" y2="740" stroke="#54626f" stroke-width="1"></line><line x1="384" y1="222" x2="-576" y2="777" stroke="#54626f" stroke-width="1"></line><line x1="448" y1="259" x2="-512" y2="814" stroke="#54626f" stroke-width="1"></line><line x1="512" y1="296" x2="-448" y2="851" stroke="#54626f" stroke-width="1"></line><line x1="576" y1="333" x2="-384" y2="888" stroke="#54626f" stroke-width="1"></line><line x1="640" y1="370" x2="-320" y2="925" stroke="#54626f" stroke-width="1"></line><line x1="704" y1="407" x2="-256" y2="962" stroke="#54626f" stroke-width="1"></line><line x1="768" y1="444" x2="-192" y2="999" stroke="#54626f" stroke-width="1"></line><line x1="0" y1="0" x2="768" y2="444" stroke="#54626f" stroke-width="1"></line><line x1="-64" y1="37" x2="704" y2="481" stroke="#54626f" stroke-width="1"></line><line x1="-128" y1="74" x2="640" y2="518" stroke="#54626f" stroke-width="1"></line><line x1="-192" y1="111" x2="576" y2="555" stroke="#54626f" stroke-width="1"></line><line x1="-256" y1="148" x2="512" y2="592" stroke="#54626f" stroke-width="1"></line><line x1="-320" y1="185" x2="448" y2="629" stroke="#54626f" stroke-width="1"></line><line x1="-384" y1="222" x2="384" y2="666" stroke="#54626f" stroke-width="1"></line><line x1="-448" y1="259" x2="320" y2="703" stroke="#54626f" stroke-width="1"></line><line x1="-512" y1="296" x2="256" y2="740" stroke="#54626f" stroke-width="1"></line><line x1="-576" y1="333" x2="192" y2="777" stroke="#54626f" stroke-width="1"></line><line x1="-640" y1="370" x2="128" y2="814" stroke="#54626f" stroke-width="1"></line><line x1="-704" y1="407" x2="64" y2="851" stroke="#54626f" stroke-width="1"></line><line x1="-768" y1="444" x2="0" y2="888" stroke="#54626f" stroke-width="1"></line><line x1="-832" y1="481" x2="-64" y2="925" stroke="#54626f" stroke-width="1"></line><line x1="-896" y1="518" x2="-128" y2="962" stroke="#54626f" stroke-width="1"></line><line x1="-960" y1="555" x2="-192" y2="999" stroke="#54626f" stroke-width="1"></line></g><g pointer-events=""></g><g pointer-events=""><g><g><line x1="144" y1="435" x2="182" y2="413" stroke="red" stroke-width="8" opacity="0"></line><line x1="144" y1="435" x2="182" y2="413" stroke="#000000" stroke-width="2" stroke-linecap="round"></line><polygon points="192 407, 166 412, 180 414, 183 422, 192 407" stroke-linejoin="round" fill="#000000" stroke="#000000" stroke-width="1"></polygon></g></g><g><g><line x1="-224" y1="315" x2="-562" y2="510" stroke="red" stroke-width="8" opacity="0"></line><line x1="-224" y1="315" x2="-562" y2="510" stroke="#000000" stroke-width="2" stroke-linecap="round"></line><polygon points="-572 515, -546 510, -559 508, -562 501, -572 515" stroke-linejoin="round" fill="#000000" stroke="#000000" stroke-width="1"></polygon></g></g><g><g><line x1="-64" y1="222" x2="168" y2="356" stroke="red" stroke-width="8" opacity="0"></line><line x1="-64" y1="222" x2="168" y2="356" stroke="#000000" stroke-width="2" stroke-linecap="round"></line><polygon points="178 362, 169 347, 165 355, 152 356, 178 362" stroke-linejoin="round" fill="#000000" stroke="#000000" stroke-width="1"></polygon></g></g><g><g><line x1="-144" y1="268" x2="-64" y2="222" stroke="red" stroke-width="8" opacity="0"></line><line x1="-144" y1="268" x2="-64" y2="222" stroke="#000000" stroke-width="2" stroke-linecap="round"></line></g></g><g><g><line x1="178" y1="362" x2="-64" y2="222" stroke="red" stroke-width="8" opacity="0"></line><line x1="178" y1="362" x2="-64" y2="222" stroke="#000000" stroke-width="2" stroke-linecap="round"></line></g></g><g><g><line x1="13" y1="511" x2="54" y2="487" stroke="red" stroke-width="8" opacity="0"></line><line x1="13" y1="511" x2="54" y2="487" stroke="#000000" stroke-width="2" stroke-linecap="round"></line><polygon points="64 481, 38 486, 52 488, 55 496, 64 481" stroke-linejoin="round" fill="#000000" stroke="#000000" stroke-width="1"></polygon></g></g><g><g><line x1="-320" y1="703" x2="-170" y2="616" stroke="red" stroke-width="8" opacity="0"></line><line x1="-320" y1="703" x2="-170" y2="616" stroke="#000000" stroke-width="2" stroke-linecap="round"></line><polygon points="-160 611, -186 616, -172 618, -169 625, -160 611" stroke-linejoin="round" fill="#000000" stroke="#000000" stroke-width="1"></polygon></g></g><g><g><line x1="-64" y1="222" x2="-134" y2="263" stroke="red" stroke-width="8" opacity="0"></line><line x1="-64" y1="222" x2="-134" y2="263" stroke="#000000" stroke-width="2" stroke-linecap="round"></line><polygon points="-144 268, -118 263, -132 261, -135 253, -144 268" stroke-linejoin="round" fill="#000000" stroke="#000000" stroke-width="1"></polygon></g></g><g><g><line x1="-572" y1="515" x2="-234" y2="320" stroke="red" stroke-width="8" opacity="0"></line><line x1="-572" y1="515" x2="-234" y2="320" stroke="#000000" stroke-width="2" stroke-linecap="round"></line><polygon points="-224 315, -250 320, -236 322, -233 329, -224 315" stroke-linejoin="round" fill="#000000" stroke="#000000" stroke-width="1"></polygon></g></g></g><g pointer-events=""><g><g transform="translate(0 0)"><svg x="-240" y="210" height="113.438" width="96" viewBox="0 0 25.400052 30.013873"><g transform="translate(412.599 -86.957)"><path d="M-412.333 102.348v4.786l8.29 4.785h8.289l8.29-4.785v-4.786l-8.29-4.786h-8.29z" fill="#3c3c3c" fill-rule="evenodd"></path><path d="M-395.754 111.92l8.29-4.786v4.785l-8.29 4.786z" fill="#090909" fill-rule="evenodd"></path><path d="M-404.044 111.92h8.29v4.785h-8.29z" fill="#232323" fill-rule="evenodd"></path><path d="M-412.333 107.134v4.785l8.29 4.786v-4.786z" fill="#232323" fill-rule="evenodd"></path><path d="M-412.333 107.134l8.29 4.785h8.289l8.29-4.785M-404.044 111.92v4.785M-395.754 111.92v4.785" fill="none" stroke="#000" stroke-width=".26588"></path><path d="M-412.333 102.348v9.571l8.29 4.786h8.289l8.29-4.786v-9.571l-8.29-4.786h-8.29z" fill="none" stroke="#000000" stroke-width=".53176"></path><path d="M-412.333 97.178v4.786l8.29 4.786h8.289l8.29-4.786v-4.786l-8.29-4.786h-8.29z" fill="#3c3c3c" fill-rule="evenodd"></path><path d="M-395.754 106.75l8.29-4.786v4.786l-8.29 4.786z" fill="#090909" fill-rule="evenodd"></path><path d="M-404.044 106.75h8.29v4.786h-8.29z" fill="#232323" fill-rule="evenodd"></path><path d="M-412.333 101.964v4.786l8.29 4.786v-4.786z" fill="#232323" fill-rule="evenodd"></path><path d="M-412.333 101.964l8.29 4.786h8.289l8.29-4.786M-404.044 106.75v4.786M-395.754 106.75v4.786" fill="none" stroke="#000" stroke-width=".266"></path><path d="M-412.333 97.178v9.572l8.29 4.786h8.289l8.29-4.786v-9.572l-8.29-4.786h-8.29z" fill="none" stroke="#000000" stroke-width=".532"></path><path d="M-412.333 92.01v4.785l8.29 4.786h8.289l8.29-4.786v-4.786l-8.29-4.786h-8.29z" fill="#3c3c3c" fill-rule="evenodd"></path><path d="M-395.754 101.58l8.29-4.785v4.786l-8.29 4.786z" fill="#090909" fill-rule="evenodd"></path><path d="M-404.044 101.58h8.29v4.787h-8.29z" fill="#232323" fill-rule="evenodd"></path><path d="M-412.333 96.795v4.786l8.29 4.786v-4.786z" fill="#232323" fill-rule="evenodd"></path><path d="M-412.333 96.795l8.29 4.786h8.289l8.29-4.786M-404.044 101.58v4.787M-395.754 101.58v4.787" fill="none" stroke="#000" stroke-width=".266"></path><path d="M-412.333 92.01v9.57l8.29 4.787h8.289l8.29-4.786v-9.572l-8.29-4.786h-8.29z" fill="none" stroke="#000000" stroke-width=".532"></path><circle cx="-136.478" cy="325.284" fill="#f4b934" r="5.801" transform="scale(1.22475 .7071) rotate(45)"></circle><g style="line-height:0%" font-family="sans-serif" font-size="3.191" stroke-width=".266"><path style="line-height:1.25;-inkscape-font-specification:&#x27;Droid Serif&#x27;" d="M-399.242 93.57l.48-.601q.222-.275.177-.448-.04-.17-.467-.416l-.507-.293 1.065-.614.937.541q.825.476.92.934.1.46-.417 1.114l-3.452 4.39-1.622-.937 1.654-2.121-3.729.923-1.622-.936z" fill="#fff" font-family="Droid Serif" font-size="9.971"></path></g></g></svg></g></g><g><g transform="translate(0 0)"><svg x="178" y="266" height="148.981" width="91.956" viewBox="0 0 24.330047 39.417932"><g transform="translate(240.35 -115.335)"><path d="M-240.082 146.018v4.445l6.973 4.025v-4.445z" fill="#d2d2d4" fill-rule="evenodd"></path><path d="M-233.11 150.043l9.858-.003v4.445l-9.857.003z" fill="#d2d2d4" fill-rule="evenodd"></path><path d="M-223.252 150.04l6.967-4.027v4.445l-6.967 4.028z" fill="#b8b8bb" fill-rule="evenodd"></path><path d="M-223.252 150.04v4.445" fill="none" stroke="#83838a" stroke-width=".267"></path><path d="M302.99-2468.894l-36.732 47.87-59.823 7.876-47.87-36.732-7.875-59.823 36.732-47.87 59.822-7.876 47.87 36.732z" fill="#848586" stroke="#83838a" stroke-width="2.151" transform="matrix(.0995 .07485 -.12957 .05747 -573.282 269.258)"></path><path d="M-240.082 139.12v4.445l6.973 4.025v-4.445z" fill="#d2d2d4" fill-rule="evenodd"></path><path d="M-233.11 143.145l9.858-.003v4.445l-9.857.003z" fill="#d2d2d4" fill-rule="evenodd"></path><path d="M-223.252 143.143l6.967-4.028v4.445l-6.967 4.028z" fill="#b8b8bb" fill-rule="evenodd"></path><path d="M302.99-2468.894l-36.732 47.87-59.823 7.876-47.87-36.732-7.875-59.823 36.732-47.87 59.822-7.876 47.87 36.732z" fill="#848586" stroke="#83838a" stroke-width="2.151" transform="matrix(.0995 .07485 -.12957 .05747 -573.282 262.36)"></path><path d="M-240.082 132.222v4.445l6.973 4.025v-4.445z" fill="#d2d2d4" fill-rule="evenodd"></path><path d="M-233.11 136.247l9.858-.003v4.445l-9.857.003z" fill="#d2d2d4" fill-rule="evenodd"></path><path d="M-223.252 136.245l6.967-4.028v4.445l-6.967 4.028z" fill="#b8b8bb" fill-rule="evenodd"></path><path d="M302.99-2468.894l-36.732 47.87-59.823 7.876-47.87-36.732-7.875-59.823 36.732-47.87 59.822-7.876 47.87 36.732z" fill="#848586" stroke="#83838a" stroke-width="2.151" transform="matrix(.0995 .07485 -.12957 .05747 -573.282 255.462)"></path><path d="M-240.082 125.324v4.445l6.973 4.025v-4.445z" fill="#d2d2d4" fill-rule="evenodd"></path><path d="M-233.11 129.349l9.858-.003v4.445l-9.857.003z" fill="#d2d2d4" fill-rule="evenodd"></path><path d="M-223.252 129.347l6.967-4.028v4.445l-6.967 4.028z" fill="#b8b8bb" fill-rule="evenodd"></path><path d="M-223.252 129.347l-9.857.002-6.973-4.025-.003-5.694 6.967-4.028 9.857-.002 6.973 4.025.003 5.694z" fill="#ececed"></path><path d="M-240.082 125.324l6.964 4.074 9.866-.053 6.967-4.026M-233.118 129.398l.008 4.396M-223.252 129.345v4.445" fill="none" stroke="#83838a" stroke-width=".267"></path><path d="M-240.085 119.63l.003 10.139 6.972 4.025 9.857-.003 6.966-4.027-.002-10.14-6.972-4.025-9.857.003z" fill="none" stroke="#000000" stroke-width=".529"></path><path d="M-223.252 136.242v4.446M-233.11 136.247v4.445" fill="none" stroke="#83838a" stroke-width=".267"></path><path d="M-240.082 132.222v4.445l6.973 4.025 9.857-.003 6.966-4.027.002-4.446-6.968 4.026-9.865.054z" fill="none" stroke="#000000" stroke-width=".529"></path><path d="M-233.11 143.145v4.445M-223.252 143.141v4.446" fill="none" stroke="#83838a" stroke-width=".267"></path><path d="M-240.082 139.12v4.445l6.973 4.025 9.857-.003 6.966-4.026.002-4.446-6.968 4.028-9.857.003z" fill="none" stroke="#000000" stroke-width=".529"></path><path d="M-240.082 146.018v4.445l6.973 4.025 9.857-.003 6.967-4.026v-4.445l-6.967 4.026-9.857.003z" fill="none" stroke="#000000" stroke-width=".529"></path><path d="M-233.11 150.043v4.445" fill="none" stroke="#83838a" stroke-width=".267"></path><circle cx="-9.268" cy="254.217" fill="#4286c5" r="5.832" transform="scale(1.22475 .7071) rotate(45)"></circle><path d="M-227.78 122.24q.75.433 1.536.73.788.298 1.43.362l-.538.31q-.218.127-.73.046-.513-.08-1.181-.34-.669-.26-1.327-.64-.657-.38-1.108-.766-.45-.386-.59-.681-.138-.296.08-.422l.537-.31q.111.37.626.825.516.454 1.265.887zm-2.428 1.403q.749.432 1.536.73.788.297 1.43.361l-.538.31q-.218.127-.73.046-.513-.08-1.182-.34-.668-.26-1.326-.64-.657-.38-1.108-.766-.45-.386-.59-.681-.139-.296.08-.422l.537-.31q.11.37.626.825.516.454 1.265.887zm1.214-.701q.749.432 1.536.73.788.297 1.43.361l-.538.31q-.218.126-.73.046-.513-.08-1.181-.34-.669-.26-1.327-.64-.657-.38-1.108-.766-.45-.386-.59-.681-.138-.296.08-.422l.537-.31q.111.37.626.825.516.454 1.265.887zm3.642-2.103q.657.38 1.108.766.45.386.59.681.139.296-.08.422l-.404.234q-.218.126-.73.045-.513-.08-1.181-.34-.67-.26-1.327-.64-.657-.38-1.108-.766-.45-.386-.59-.681-.139-.296.08-.422l.404-.234q.218-.126.73-.045.513.08 1.182.34.668.26 1.326.64z" fill="#fff"></path></g></svg></g></g><g><g transform="translate(0 0)"><svg x="48" y="377" height="113.438" width="96" viewBox="0 0 25.400052 30.013873"><g transform="translate(412.599 -86.957)"><path d="M-412.333 102.348v4.786l8.29 4.785h8.289l8.29-4.785v-4.786l-8.29-4.786h-8.29z" fill="#3c3c3c" fill-rule="evenodd"></path><path d="M-395.754 111.92l8.29-4.786v4.785l-8.29 4.786z" fill="#090909" fill-rule="evenodd"></path><path d="M-404.044 111.92h8.29v4.785h-8.29z" fill="#232323" fill-rule="evenodd"></path><path d="M-412.333 107.134v4.785l8.29 4.786v-4.786z" fill="#232323" fill-rule="evenodd"></path><path d="M-412.333 107.134l8.29 4.785h8.289l8.29-4.785M-404.044 111.92v4.785M-395.754 111.92v4.785" fill="none" stroke="#000" stroke-width=".26588"></path><path d="M-412.333 102.348v9.571l8.29 4.786h8.289l8.29-4.786v-9.571l-8.29-4.786h-8.29z" fill="none" stroke="#000000" stroke-width=".53176"></path><path d="M-412.333 97.178v4.786l8.29 4.786h8.289l8.29-4.786v-4.786l-8.29-4.786h-8.29z" fill="#3c3c3c" fill-rule="evenodd"></path><path d="M-395.754 106.75l8.29-4.786v4.786l-8.29 4.786z" fill="#090909" fill-rule="evenodd"></path><path d="M-404.044 106.75h8.29v4.786h-8.29z" fill="#232323" fill-rule="evenodd"></path><path d="M-412.333 101.964v4.786l8.29 4.786v-4.786z" fill="#232323" fill-rule="evenodd"></path><path d="M-412.333 101.964l8.29 4.786h8.289l8.29-4.786M-404.044 106.75v4.786M-395.754 106.75v4.786" fill="none" stroke="#000" stroke-width=".266"></path><path d="M-412.333 97.178v9.572l8.29 4.786h8.289l8.29-4.786v-9.572l-8.29-4.786h-8.29z" fill="none" stroke="#000000" stroke-width=".532"></path><path d="M-412.333 92.01v4.785l8.29 4.786h8.289l8.29-4.786v-4.786l-8.29-4.786h-8.29z" fill="#3c3c3c" fill-rule="evenodd"></path><path d="M-395.754 101.58l8.29-4.785v4.786l-8.29 4.786z" fill="#090909" fill-rule="evenodd"></path><path d="M-404.044 101.58h8.29v4.787h-8.29z" fill="#232323" fill-rule="evenodd"></path><path d="M-412.333 96.795v4.786l8.29 4.786v-4.786z" fill="#232323" fill-rule="evenodd"></path><path d="M-412.333 96.795l8.29 4.786h8.289l8.29-4.786M-404.044 101.58v4.787M-395.754 101.58v4.787" fill="none" stroke="#000" stroke-width=".266"></path><path d="M-412.333 92.01v9.57l8.29 4.787h8.289l8.29-4.786v-9.572l-8.29-4.786h-8.29z" fill="none" stroke="#000000" stroke-width=".532"></path><circle cx="-136.478" cy="325.284" fill="#f4b934" r="5.801" transform="scale(1.22475 .7071) rotate(45)"></circle><g style="line-height:0%" font-family="sans-serif" font-size="3.191" stroke-width=".266"><path style="line-height:1.25;-inkscape-font-specification:&#x27;Droid Serif&#x27;" d="M-399.242 93.57l.48-.601q.222-.275.177-.448-.04-.17-.467-.416l-.507-.293 1.065-.614.937.541q.825.476.92.934.1.46-.417 1.114l-3.452 4.39-1.622-.937 1.654-2.121-3.729.923-1.622-.936z" fill="#fff" font-family="Droid Serif" font-size="9.971"></path></g></g></svg></g></g><g><g transform="translate(0 0)"><svg x="-632" y="450" height="95.068" width="63" viewBox="0 0 16.668756 25.153389"><path d="M16.668 22.903q0 1.64-.864 2.091-.865.451-2.297-.376L3.161 18.645q-1.433-.827-2.297-2.276Q.001 14.921 0 13.28q0-.723.042-1.39.042-.666.166-1.394.124-.727.313-1.302.19-.575.51-1.039.319-.464.733-.683.414-.22 1.012-.147.598.073 1.32.49.107.06.497.58.391.52.882 1.165.491.646 1.279 1.394.788.75 1.58 1.207.793.458 1.58.618.788.161 1.28.083.49-.079.881-.147.39-.069.497-.007.722.416 1.32 1.035.598.619 1.013 1.315.414.697.734 1.531t.509 1.627q.19.793.313 1.664.124.872.166 1.586.042.713.042 1.438zM12.88 8.51q0 2.173-1.332 2.942-1.332.769-3.214-.318-1.882-1.086-3.214-3.393Q3.79 5.434 3.79 3.26q0-2.173 1.331-2.942 1.332-.77 3.214.317t3.214 3.394q1.332 2.306 1.332 4.48z" fill="#444"></path></svg></g></g><g><g transform="translate(0 0)"><svg x="-208" y="452" height="165.108" width="227" viewBox="0 0 60.060411 43.684746"><path d="M2647.212-1556.832l-31.177 18-31.177-18v-36l31.177-18 31.177 18z" fill="#d2d2d4" stroke="#83838a" stroke-width="1.723" transform="matrix(0 -.16718 -.14432 -.08359 -188.401 313.367)"></path><path d="M2.895 20.22l5.302 3.066 33.275-19.33L36.276.947z" fill="#ececed" fill-rule="evenodd" stroke="#83838a" stroke-width=".26458400000000004"></path><path d="M2647.212-1556.832l-31.177 18-31.177-18v-36l31.177-18 31.177 18z" fill="#d2d2d4" stroke="#83838a" stroke-width="1.723" transform="matrix(0 -.16718 -.14432 -.08359 -213.883 331.997)"></path><path d="M2647.212-1556.832l-31.177 18-31.177-18v-36l31.177-18 31.177 18z" fill="#d2d2d4" stroke="#83838a" stroke-width="1.703" transform="matrix(0 -.16718 -.14432 -.08359 -213.99 342.365)"></path><path d="M2647.212-1556.832l-31.177 18-31.177-18v-36l31.177-18 31.177 18z" fill="#d2d2d4" stroke="#83838a" stroke-width="1.703" transform="matrix(0 -.16718 -.14432 -.08359 -221.782 332.64)"></path><path d="M2647.212-1556.832l-31.177 18-31.177-18v-36l31.177-18 31.177 18z" fill="#d2d2d4" stroke="#83838a" stroke-width="1.723" transform="matrix(0 -.16718 -.14432 -.08359 -180.502 312.725)"></path><path d="M2647.212-1556.832l-31.177 18-31.177-18v-36l31.177-18 31.177 18z" fill="#d2d2d4" stroke="#83838a" stroke-width="1.723" transform="matrix(0 -.16718 -.14432 -.08359 -180.608 323.092)"></path><path d="M2647.212-1556.832l-31.177 18-31.177-18v-36l31.177-18 31.177 18z" fill="#d2d2d4" stroke="#83838a" stroke-width="1.723" transform="matrix(0 -.16718 -.14432 -.08359 -172.709 322.45)"></path><path d="M23.718 32.238l33.38-19.272M26.381 39.03l33.381-19.273M23.783 42.737l33.382-19.272M15.884 43.379l33.381-19.273M18.588 29.304l33.295-19.35" fill="none" stroke="#83838a" stroke-width=".26756057000000005"></path><path d="M23.783 32.313l2.598 6.717 33.381-19.273-2.663-6.791z" fill="#b8b8bb" fill-rule="evenodd" stroke="#83838a" stroke-width=".26458400000000004"></path><path d="M2647.212-1556.832l-31.177 18-31.177-18v-36l31.177-18 31.177 18z" fill="#d2d2d4" stroke="#83838a" stroke-width="1.703" transform="matrix(0 -.16718 -.14432 -.08359 -206.09 341.723)"></path><path d="M15.99 22.587L49.371 3.315M10.795 19.578L44.176.306M2.855 20.193L36.235.92" fill="none" stroke="#83838a" stroke-width=".26756057000000005"></path><path d="M26.381 39.03l-2.598 3.707 33.382-19.272 2.597-3.708z" fill="#9d9da3" fill-rule="evenodd" stroke="#83838a" stroke-width=".26458400000000004"></path><path d="M18.482 39.672l-2.598 3.707 4.51-2.604z" fill="#9d9da3" fill-rule="evenodd" stroke="#83838a" stroke-width=".26756057000000005"></path><path d="M18.588 29.304l5.195 3.01L57.1 12.965l-5.216-3.012z" fill="#ececed" fill-rule="evenodd" stroke="#83838a" stroke-width=".26458400000000004"></path><path d="M15.99 22.587l2.555 6.678 33.338-19.31-2.512-6.64z" fill="#b8b8bb" fill-rule="evenodd" stroke="#83838a" stroke-width=".26458400000000004"></path><path d="M21.836 11.715l-.927.535-.463-.267.927-.535zm1.622-.134l-1.854 1.07-.463-.267 1.854-1.07zm-.232 2.275l-.231.134-3.708-2.141 2.78-1.606.233.134-2.55 1.472 3.477 2.007zm.464-1.606l-1.39.803-.464-.267 1.39-.803zm1.39 0l-2.085 1.204-.464-.267 2.086-1.204z" fill="#000000"></path><path d="M10.795 19.578l5.195 3.01L49.371 3.314 44.176.305z" fill="#ececed" fill-rule="evenodd" stroke="#83838a" stroke-width=".26458400000000004"></path><path d="M2647.212-1556.832l-31.177 18-31.177-18v-36l31.177-18 31.177 18z" fill="#5b5b62" stroke="#000000" stroke-width="2.392" transform="matrix(0 -.11907 -.10278 -.05953 -148.476 244.02)"></path><path d="M.298 23.927l2.597-3.707L36.276.947l3.39 1.963 4.51-2.604 5.195 3.009 2.512 6.64 5.216 3.01 2.663 6.792-2.597 3.708-33.382 19.272-3.394-1.966-4.505 2.608-5.195-3.01-2.598-6.716-5.196-3.009z" fill="none" stroke="#000000" stroke-width=".5291680000000001"></path><path d="M2647.212-1556.832l-31.177 18-31.177-18v-36l31.177-18 31.177 18z" fill="#5b5b62" stroke="#000000" stroke-width="2.392" transform="matrix(0 -.11907 -.10278 -.05953 -140.683 253.747)"></path><path d="M2647.212-1556.832l-31.177 18-31.177-18v-36l31.177-18 31.177 18z" fill="#5b5b62" stroke="#000000" stroke-width="2.392" transform="matrix(0 -.11907 -.10278 -.05953 -148.583 254.388)"></path><path d="M2647.212-1556.832l-31.177 18-31.177-18v-36l31.177-18 31.177 18z" fill="#5b5b62" stroke="#000000" stroke-width="2.392" transform="matrix(0 -.11907 -.10278 -.05953 -156.376 244.663)"></path><path d="M29.215 11.067l-.927.535-.464-.267.927-.535zm1.622-.134l-1.854 1.07-.464-.267 1.854-1.07zm-.232 2.275l-.232.134-3.708-2.141 2.781-1.606.232.134-2.55 1.472 3.477 2.007zm.464-1.606l-1.391.803-.463-.267 1.39-.803zm1.39 0l-2.086 1.205-.463-.268 2.086-1.204zM37.148 20.465l-.927.535-.463-.268.927-.535zm1.623-.134l-1.855 1.07-.463-.267 1.854-1.07zm-.232 2.275l-.232.133-3.708-2.14 2.78-1.606.233.134-2.55 1.472 3.477 2.007zM39.002 21l-1.39.803-.464-.268 1.39-.803zm1.39 0l-2.085 1.204-.463-.268 2.085-1.204z" fill="#000000"></path></svg></g></g></g><g pointer-events=""><g><g transform="translate(0 0)"><svg x="-320" y="703" overflow="visible"><g transform="scale(0.5660000000000001) matrix(0.707 0.409 -0.707 0.409 0 0)"><svg x="-222.5" y="-222" overflow="visible"><image href="https://cloudcraft-images.s3.amazonaws.com/bd2b5b9d-5222-4339-ac28-9801c4364560/a.png" width="445" height="444"></image></svg></g></svg></g></g></g><g pointer-events=""></g><g pointer-events=""><g><g transform="translate(0 0)"><svg x="-304" y="860" overflow="visible" style="user-select:none"><text stroke="#ffffff" stroke-width="4" font-family="Open Sans" y="36.5" font-size="25pt" fill="#f5b720" font-weight="bold" transform="matrix(0.707 -0.409 0.707 0.409 0 0)"><tspan x="8" dy="0">User Environment</tspan><tspan x="8" dy="1.1em">-Generate Traces</tspan></text><text font-family="Open Sans" y="36.5" font-size="25pt" fill="#f5b720" font-weight="bold" transform="matrix(0.707 -0.409 0.707 0.409 0 0)"><tspan x="8" dy="0">User Environment</tspan><tspan x="8" dy="1.1em">-Generate Traces</tspan></text></svg></g></g><g><g transform="translate(0 0)"><svg x="-16" y="564" overflow="visible" style="user-select:none"><text stroke="#ffffff" stroke-width="4" font-family="Open Sans" y="36.5" font-size="25pt" fill="#f5b720" font-weight="bold" transform="matrix(0.707 0.409 -0.707 0.409 0 0)"><tspan x="8" dy="0">Trace Collector</tspan><tspan x="8" dy="1.1em">Kinesis Stream</tspan><tspan x="8" dy="1.1em">[Same Region]</tspan></text><text font-family="Open Sans" y="36.5" font-size="25pt" fill="#f5b720" font-weight="bold" transform="matrix(0.707 0.409 -0.707 0.409 0 0)"><tspan x="8" dy="0">Trace Collector</tspan><tspan x="8" dy="1.1em">Kinesis Stream</tspan><tspan x="8" dy="1.1em">[Same Region]</tspan></text></svg></g></g><g><g transform="translate(0 0)"><svg x="160" y="463" overflow="visible" style="user-select:none"><text stroke="#ffffff" stroke-width="4" font-family="Open Sans" y="36.5" font-size="25pt" fill="#f5b720" font-weight="bold" transform="matrix(0.707 0.409 -0.707 0.409 0 0)"><tspan x="8" dy="0">Trace Analysis</tspan><tspan x="8" dy="1.1em">Lambda</tspan></text><text font-family="Open Sans" y="36.5" font-size="25pt" fill="#f5b720" font-weight="bold" transform="matrix(0.707 0.409 -0.707 0.409 0 0)"><tspan x="8" dy="0">Trace Analysis</tspan><tspan x="8" dy="1.1em">Lambda</tspan></text></svg></g></g><g><g transform="translate(0 0)"><svg x="288" y="389" overflow="visible" style="user-select:none"><text stroke="#ffffff" stroke-width="4" font-family="Open Sans" y="36.5" font-size="25pt" fill="#f5b720" font-weight="bold" transform="matrix(0.707 0.409 -0.707 0.409 0 0)"><tspan x="8" dy="0">Architecture Data</tspan><tspan x="8" dy="1.1em">DynamoDB</tspan></text><text font-family="Open Sans" y="36.5" font-size="25pt" fill="#f5b720" font-weight="bold" transform="matrix(0.707 0.409 -0.707 0.409 0 0)"><tspan x="8" dy="0">Architecture Data</tspan><tspan x="8" dy="1.1em">DynamoDB</tspan></text></svg></g></g><g><g transform="translate(0 0)"><svg x="-128" y="296" overflow="visible" style="user-select:none"><text stroke="#ffffff" stroke-width="4" font-family="Open Sans" y="36.5" font-size="25pt" fill="#f5b720" font-weight="bold" transform="matrix(0.707 0.409 -0.707 0.409 0 0)"><tspan x="8" dy="0">Dashboard</tspan><tspan x="8" dy="1.1em">Lambda</tspan></text><text font-family="Open Sans" y="36.5" font-size="25pt" fill="#f5b720" font-weight="bold" transform="matrix(0.707 0.409 -0.707 0.409 0 0)"><tspan x="8" dy="0">Dashboard</tspan><tspan x="8" dy="1.1em">Lambda</tspan></text></svg></g></g></g></g></g></svg>